<svg width="93" height="60" viewBox="0 0 93 60" fill="none" xmlns="http://www.w3.org/2000/svg">
<path d="M3.27775 15V3.48H10.7018V4.408H4.36575V8.568H10.1258V9.496H4.36575V15H3.27775ZM15.4324 15.224C14.899 15.2133 14.3977 15.1173 13.9284 14.936C13.4697 14.7547 13.0644 14.4827 12.7124 14.12C12.371 13.7573 12.099 13.304 11.8964 12.76C11.6937 12.216 11.5924 11.5813 11.5924 10.856C11.5924 10.248 11.6724 9.68267 11.8324 9.16C11.9924 8.62667 12.2324 8.16267 12.5524 7.768C12.8724 7.37333 13.2724 7.064 13.7524 6.84C14.2324 6.60533 14.7924 6.488 15.4324 6.488C16.083 6.488 16.6484 6.60533 17.1284 6.84C17.6084 7.064 18.0084 7.37333 18.3284 7.768C18.6484 8.152 18.883 8.61067 19.0324 9.144C19.1924 9.67733 19.2724 10.248 19.2724 10.856C19.2724 11.5173 19.1817 12.1147 19.0004 12.648C18.819 13.1813 18.5577 13.64 18.2164 14.024C17.8857 14.408 17.4804 14.7067 17.0004 14.92C16.531 15.1227 16.0084 15.224 15.4324 15.224ZM18.2484 10.856C18.2484 10.3653 18.195 9.90667 18.0884 9.48C17.9817 9.05333 17.8164 8.68533 17.5924 8.376C17.3684 8.056 17.0804 7.80533 16.7284 7.624C16.3764 7.44267 15.9444 7.352 15.4324 7.352C14.931 7.352 14.499 7.45333 14.1364 7.656C13.7844 7.848 13.4964 8.10933 13.2724 8.44C13.0484 8.76 12.883 9.13333 12.7764 9.56C12.6697 9.976 12.6164 10.408 12.6164 10.856C12.6164 11.368 12.675 11.8427 12.7924 12.28C12.9204 12.7067 13.1017 13.0747 13.3364 13.384C13.571 13.6933 13.8644 13.9333 14.2164 14.104C14.5684 14.2747 14.9737 14.36 15.4324 14.36C15.9337 14.36 16.3604 14.264 16.7124 14.072C17.075 13.8693 17.3684 13.6027 17.5924 13.272C17.8164 12.9413 17.9817 12.568 18.0884 12.152C18.195 11.736 18.2484 11.304 18.2484 10.856ZM13.7364 4.024H14.7764V5.656H13.7364V4.024ZM16.2804 4.024H17.3204V5.656H16.2804V4.024ZM22.035 15H21.075V6.712H22.035V8.264H22.067C22.3337 7.60267 22.675 7.144 23.091 6.888C23.5177 6.62133 24.0777 6.488 24.771 6.488V7.528C24.227 7.51733 23.779 7.60267 23.427 7.784C23.075 7.96533 22.7923 8.21067 22.579 8.52C22.3763 8.82933 22.2323 9.19733 22.147 9.624C22.0723 10.04 22.035 10.4773 22.035 10.936V15ZM32.4739 10.824C32.4739 10.3547 32.4099 9.912 32.2819 9.496C32.1539 9.06933 31.9672 8.70133 31.7219 8.392C31.4872 8.072 31.1939 7.82133 30.8419 7.64C30.5005 7.448 30.1112 7.352 29.6739 7.352C29.1725 7.352 28.7405 7.45333 28.3779 7.656C28.0152 7.848 27.7165 8.11467 27.4819 8.456C27.2472 8.79733 27.0765 9.19733 26.9699 9.656C26.8632 10.104 26.8205 10.5893 26.8419 11.112C26.8419 11.6347 26.9112 12.0987 27.0499 12.504C27.1992 12.8987 27.4019 13.2347 27.6579 13.512C27.9139 13.7893 28.2125 14.0027 28.5539 14.152C28.8952 14.2907 29.2685 14.36 29.6739 14.36C30.1219 14.36 30.5219 14.2693 30.8739 14.088C31.2259 13.9067 31.5192 13.6613 31.7539 13.352C31.9885 13.032 32.1645 12.6587 32.2819 12.232C32.4099 11.7947 32.4739 11.3253 32.4739 10.824ZM32.4739 3.48H33.4339V15H32.4739V13.544H32.4419C32.3032 13.8213 32.1219 14.0667 31.8979 14.28C31.6845 14.4827 31.4445 14.6533 31.1779 14.792C30.9219 14.9307 30.6552 15.0373 30.3779 15.112C30.1005 15.1867 29.8285 15.224 29.5619 15.224C28.8899 15.224 28.3192 15.112 27.8499 14.888C27.3805 14.664 26.9912 14.36 26.6819 13.976C26.3832 13.5813 26.1645 13.1173 26.0259 12.584C25.8872 12.0507 25.8179 11.48 25.8179 10.872C25.8179 10.296 25.8925 9.74133 26.0419 9.208C26.1912 8.67467 26.4152 8.21067 26.7139 7.816C27.0232 7.41067 27.4072 7.09067 27.8659 6.856C28.3352 6.61067 28.8845 6.488 29.5139 6.488C30.1005 6.488 30.6605 6.62133 31.1939 6.888C31.7379 7.144 32.1645 7.528 32.4739 8.04V3.48ZM41.8551 10.28C41.8551 9.87467 41.7965 9.496 41.6791 9.144C41.5725 8.78133 41.4071 8.472 41.1831 8.216C40.9698 7.94933 40.6978 7.74133 40.3671 7.592C40.0365 7.432 39.6578 7.352 39.2311 7.352C38.8045 7.352 38.4258 7.432 38.0951 7.592C37.7751 7.752 37.4978 7.96533 37.2631 8.232C37.0391 8.49867 36.8578 8.808 36.7191 9.16C36.5805 9.512 36.4898 9.88533 36.4471 10.28H41.8551ZM36.4471 11.08C36.4471 11.528 36.5058 11.9547 36.6231 12.36C36.7405 12.7547 36.9111 13.1013 37.1351 13.4C37.3698 13.688 37.6631 13.9227 38.0151 14.104C38.3671 14.2747 38.7725 14.36 39.2311 14.36C39.8605 14.36 40.3991 14.1947 40.8471 13.864C41.2951 13.5333 41.5938 13.064 41.7431 12.456H42.8151C42.6978 12.8507 42.5431 13.2187 42.3511 13.56C42.1591 13.8907 41.9191 14.184 41.6311 14.44C41.3431 14.6853 41.0018 14.8773 40.6071 15.016C40.2125 15.1547 39.7538 15.224 39.2311 15.224C38.5698 15.224 37.9991 15.112 37.5191 14.888C37.0391 14.664 36.6445 14.36 36.3351 13.976C36.0258 13.5813 35.7965 13.1227 35.6471 12.6C35.4978 12.0667 35.4231 11.496 35.4231 10.888C35.4231 10.28 35.5085 9.70933 35.6791 9.176C35.8605 8.64267 36.1111 8.17867 36.4311 7.784C36.7618 7.37867 37.1618 7.064 37.6311 6.84C38.1005 6.60533 38.6338 6.488 39.2311 6.488C40.3725 6.488 41.2685 6.88267 41.9191 7.672C42.5698 8.45067 42.8898 9.58667 42.8791 11.08H36.4471ZM45.7538 15H44.7938V6.712H45.7538V8.264H45.7858C46.0524 7.60267 46.3938 7.144 46.8098 6.888C47.2364 6.62133 47.7964 6.488 48.4898 6.488V7.528C47.9458 7.51733 47.4978 7.60267 47.1458 7.784C46.7938 7.96533 46.5111 8.21067 46.2978 8.52C46.0951 8.82933 45.9511 9.19733 45.8658 9.624C45.7911 10.04 45.7538 10.4773 45.7538 10.936V15ZM49.1939 6.712H50.2339L52.9219 13.816L55.6099 6.712H56.6499L53.4339 15H52.3619L49.1939 6.712ZM64.0739 10.28C64.0739 9.87467 64.0152 9.496 63.8979 9.144C63.7912 8.78133 63.6259 8.472 63.4019 8.216C63.1885 7.94933 62.9165 7.74133 62.5859 7.592C62.2552 7.432 61.8765 7.352 61.4499 7.352C61.0232 7.352 60.6445 7.432 60.3139 7.592C59.9939 7.752 59.7165 7.96533 59.4819 8.232C59.2579 8.49867 59.0765 8.808 58.9379 9.16C58.7992 9.512 58.7085 9.88533 58.6659 10.28H64.0739ZM58.6659 11.08C58.6659 11.528 58.7245 11.9547 58.8419 12.36C58.9592 12.7547 59.1299 13.1013 59.3539 13.4C59.5885 13.688 59.8819 13.9227 60.2339 14.104C60.5859 14.2747 60.9912 14.36 61.4499 14.36C62.0792 14.36 62.6179 14.1947 63.0659 13.864C63.5139 13.5333 63.8125 13.064 63.9619 12.456H65.0339C64.9165 12.8507 64.7619 13.2187 64.5699 13.56C64.3779 13.8907 64.1379 14.184 63.8499 14.44C63.5619 14.6853 63.2205 14.8773 62.8259 15.016C62.4312 15.1547 61.9725 15.224 61.4499 15.224C60.7885 15.224 60.2179 15.112 59.7379 14.888C59.2579 14.664 58.8632 14.36 58.5539 13.976C58.2445 13.5813 58.0152 13.1227 57.8659 12.6C57.7165 12.0667 57.6419 11.496 57.6419 10.888C57.6419 10.28 57.7272 9.70933 57.8979 9.176C58.0792 8.64267 58.3299 8.17867 58.6499 7.784C58.9805 7.37867 59.3805 7.064 59.8499 6.84C60.3192 6.60533 60.8525 6.488 61.4499 6.488C62.5912 6.488 63.4872 6.88267 64.1379 7.672C64.7885 8.45067 65.1085 9.58667 65.0979 11.08H58.6659ZM67.9725 15H67.0125V6.712H67.9725V8.264H68.0045C68.2712 7.60267 68.6125 7.144 69.0285 6.888C69.4552 6.62133 70.0152 6.488 70.7085 6.488V7.528C70.1645 7.51733 69.7165 7.60267 69.3645 7.784C69.0125 7.96533 68.7298 8.21067 68.5165 8.52C68.3138 8.82933 68.1698 9.19733 68.0845 9.624C68.0098 10.04 67.9725 10.4773 67.9725 10.936V15ZM78.0114 10.28C78.0114 9.87467 77.9527 9.496 77.8354 9.144C77.7287 8.78133 77.5634 8.472 77.3394 8.216C77.126 7.94933 76.854 7.74133 76.5234 7.592C76.1927 7.432 75.814 7.352 75.3874 7.352C74.9607 7.352 74.582 7.432 74.2514 7.592C73.9314 7.752 73.654 7.96533 73.4194 8.232C73.1954 8.49867 73.014 8.808 72.8754 9.16C72.7367 9.512 72.646 9.88533 72.6034 10.28H78.0114ZM72.6034 11.08C72.6034 11.528 72.662 11.9547 72.7794 12.36C72.8967 12.7547 73.0674 13.1013 73.2914 13.4C73.526 13.688 73.8194 13.9227 74.1714 14.104C74.5234 14.2747 74.9287 14.36 75.3874 14.36C76.0167 14.36 76.5554 14.1947 77.0034 13.864C77.4514 13.5333 77.75 13.064 77.8994 12.456H78.9714C78.854 12.8507 78.6994 13.2187 78.5074 13.56C78.3154 13.8907 78.0754 14.184 77.7874 14.44C77.4994 14.6853 77.158 14.8773 76.7634 15.016C76.3687 15.1547 75.91 15.224 75.3874 15.224C74.726 15.224 74.1554 15.112 73.6754 14.888C73.1954 14.664 72.8007 14.36 72.4914 13.976C72.182 13.5813 71.9527 13.1227 71.8034 12.6C71.654 12.0667 71.5794 11.496 71.5794 10.888C71.5794 10.28 71.6647 9.70933 71.8354 9.176C72.0167 8.64267 72.2674 8.17867 72.5874 7.784C72.918 7.37867 73.318 7.064 73.7874 6.84C74.2567 6.60533 74.79 6.488 75.3874 6.488C76.5287 6.488 77.4247 6.88267 78.0754 7.672C78.726 8.45067 79.046 9.58667 79.0354 11.08H72.6034ZM80.7648 15V6.712H81.7248V15H80.7648ZM80.7168 4.904V3.48H81.7728V4.904H80.7168ZM85.1276 15H84.1676V6.712H85.1276V7.864C85.5116 7.45867 85.9063 7.128 86.3116 6.872C86.7276 6.616 87.2236 6.488 87.7996 6.488C88.3116 6.488 88.7863 6.57867 89.2236 6.76C89.661 6.93067 90.029 7.23467 90.3276 7.672C90.5303 7.97067 90.6476 8.28 90.6796 8.6C90.7223 8.90933 90.7436 9.23467 90.7436 9.576V15H89.7836V9.592C89.7836 8.84533 89.6183 8.28533 89.2876 7.912C88.957 7.53867 88.4076 7.352 87.6396 7.352C87.341 7.352 87.069 7.4 86.8236 7.496C86.5783 7.58133 86.3543 7.69867 86.1516 7.848C85.9596 7.99733 85.7943 8.168 85.6556 8.36C85.517 8.552 85.4103 8.75467 85.3356 8.968C85.2396 9.23467 85.181 9.49067 85.1596 9.736C85.1383 9.98133 85.1276 10.248 85.1276 10.536V15Z" fill="#03437C"/>
<path d="M23.2975 19.7715H32.3824V50H26.4967V29.5537C26.4967 28.9658 26.5035 28.1455 26.5172 27.0928C26.5309 26.0264 26.5377 25.2061 26.5377 24.6318L20.816 50H14.6842L9.00352 24.6318C9.00352 25.2061 9.01035 26.0264 9.02402 27.0928C9.0377 28.1455 9.04453 28.9658 9.04453 29.5537V50H3.15879V19.7715H12.3463L17.8424 43.54L23.2975 19.7715ZM62.3115 19.7715V25.124H53.2676V50H46.9102V25.124H37.8252V19.7715H62.3115ZM72.6967 40.6689C72.8881 42.0498 73.2641 43.082 73.8246 43.7656C74.85 45.0098 76.6068 45.6318 79.0951 45.6318C80.5854 45.6318 81.7953 45.4678 82.725 45.1396C84.4887 44.5107 85.3705 43.3418 85.3705 41.6328C85.3705 40.6348 84.933 39.8623 84.058 39.3154C83.183 38.7822 81.809 38.3105 79.9359 37.9004L76.7367 37.1826C73.5922 36.4717 71.4184 35.6992 70.2152 34.8652C68.1781 33.4707 67.1596 31.29 67.1596 28.3232C67.1596 25.6162 68.1439 23.3672 70.1127 21.5762C72.0814 19.7852 74.973 18.8896 78.7875 18.8896C81.973 18.8896 84.6869 19.7373 86.9291 21.4326C89.185 23.1143 90.3676 25.5615 90.477 28.7744H84.4066C84.2973 26.9561 83.5043 25.6641 82.0277 24.8984C81.0434 24.3926 79.8197 24.1396 78.3568 24.1396C76.7299 24.1396 75.4311 24.4678 74.4604 25.124C73.4896 25.7803 73.0043 26.6963 73.0043 27.8721C73.0043 28.9521 73.4828 29.7588 74.4398 30.292C75.0551 30.6475 76.3676 31.0645 78.3773 31.543L83.5863 32.7939C85.8695 33.3408 87.5922 34.0723 88.7543 34.9883C90.559 36.4102 91.4613 38.4678 91.4613 41.1611C91.4613 43.9229 90.4018 46.2197 88.2826 48.0518C86.1771 49.8701 83.1967 50.7793 79.3412 50.7793C75.4037 50.7793 72.307 49.8838 70.0512 48.0928C67.7953 46.2881 66.6674 43.8135 66.6674 40.6689H72.6967Z" fill="#1D77C9"/>
</svg>
