<svg xmlns="http://www.w3.org/2000/svg" viewBox="0 0 188.74 154.29">
  <g id="Ebene_2" data-name="Ebene 2">
    <g id="Ebene_1-2" data-name="Ebene 1">
      <g>
        <path d="M139.19,77.76h-2.66l1.67,1.15A11.85,11.85,0,0,0,139.19,77.76Z" fill="none"/>
        <path d="M160,37.47h1.81l3,4.73h1.84l-3.15-4.86c1.63-.17,2.89-1,2.89-3s-1.23-3.14-3.85-3.14h-4.25v11H160Zm0-4.88h2.27c1.15,0,2.41.23,2.41,1.69,0,1.73-1.38,1.81-2.89,1.81H160Z" fill="none"/>
        <path d="M152.42,36.67a9.37,9.37,0,0,0,5.77,8.71,4,4,0,0,1,1.71.53,9.52,9.52,0,0,0,2,.22,9.41,9.41,0,1,0-9.49-9.46Zm9.49-8a7.74,7.74,0,0,1,7.72,8,7.75,7.75,0,1,1-15.49,0A7.75,7.75,0,0,1,161.91,28.69Z" fill="none"/>
        <path d="M147,32.78V45.35h1a3.94,3.94,0,0,1,1.19.18,3.94,3.94,0,0,1,1.19-.18h1.32a13.38,13.38,0,0,1-3.2-8.68,13.22,13.22,0,0,1,.84-4.6A15.17,15.17,0,0,1,147,32.78Z" fill="none"/>
        <path d="M170.62,102.09a2.38,2.38,0,0,0-1.1-2L147.59,84.92a24.32,24.32,0,0,1-2.46,2.53c-.08.06-.17.11-.25.18a3.91,3.91,0,0,1-1.33,1.56l-9.67,6.68,13,9a4.18,4.18,0,0,1,.93.9,4,4,0,0,1,1.17.55l8.66,6,12.94-8.93.1-.06a3.67,3.67,0,0,1-.07-1.05S170.62,102.14,170.62,102.09Z" fill="none"/>
        <path d="M137.1,53a4,4,0,0,1,3.21-1.63h1v-2A4,4,0,0,1,143,46.12V29.17h.95a12.22,12.22,0,0,0,9.32-5,9.11,9.11,0,0,0,.65-1,12.88,12.88,0,0,0,.84-11.57,12.58,12.58,0,0,0-3.43-4.7A12.17,12.17,0,0,0,143.38,4a12.41,12.41,0,0,0-12.13,10.23v0h-1.13A12.41,12.41,0,0,0,118,4a12.14,12.14,0,0,0-8,3.05,12.53,12.53,0,0,0-3.17,4.3,12.8,12.8,0,0,0,.87,12.09,4.32,4.32,0,0,0,.33.5,12.29,12.29,0,0,0,9.5,5.23h1V53Z" fill="none"/>
        <path d="M141.53,81.21l1.32.91a13.19,13.19,0,0,0,1.29-1.55,4.24,4.24,0,0,1,.63-.7,4,4,0,0,1,.3-.86,12.67,12.67,0,0,0,1.35-5.5,12,12,0,0,0-7.6-11.18,4.06,4.06,0,0,1-1.37-.91V73.76h6.09l.83.63a8.88,8.88,0,0,1-1.65,5.32C142.29,80.31,141.89,80.8,141.53,81.21ZM140.26,69a2.48,2.48,0,1,1,2.49-2.48A2.49,2.49,0,0,1,140.26,69Z" fill="none"/>
        <path d="M157.88,49.52l-.45-.17h-2.14v4h-2.38v-4H150.3v4h-2.38v-4h-1V53a4,4,0,0,1-4,4h-1.68A17.82,17.82,0,0,1,152,73.26a17.38,17.38,0,0,1-1.43,6.92L172.9,95.63l.11.08a8,8,0,0,1,3.19,5.71l8.54-5.9L157.88,77Z" fill="none"/>
        <path d="M154.81,120.87l-.18.06a3.71,3.71,0,0,1-.92.89l-1.94,1.35a4,4,0,0,1-1.19.57,4.23,4.23,0,0,1-.91.88l-2,1.36a4.11,4.11,0,0,1-1.16.55,3.92,3.92,0,0,1-1,.91l-2,1.38a3.76,3.76,0,0,1-1.13.53v20.94a18.29,18.29,0,0,0,5.92-1.72,14.4,14.4,0,0,0,7.2-8,21.49,21.49,0,0,1-.77-5.85Z" fill="none"/>
        <path d="M140.19,124.33l1.71-1.18-3.76-2.6,2.1-1.45,3.76,2.6,2-1.36-3.76-2.59,2.1-1.45,3.75,2.6,1.95-1.35L146.24,115l2.1-1.45,3.76,2.59.59-.41-6-4.13-14,9.68a3.6,3.6,0,0,1-.92.46v3.9h2.93v-2.67l1.58-1.1,3.68,2.68Z" fill="none"/>
        <path d="M172.81,108.63l-12.43,8.59a3.55,3.55,0,0,1,.08.73V135a21.78,21.78,0,0,1-.68,5.54,13.68,13.68,0,0,0,5.07,6.48,14.42,14.42,0,0,0,2.43,1.47,12.17,12.17,0,0,0,1.74.7,20.43,20.43,0,0,0,3.82.86V108.6Z" fill="none"/>
        <path d="M114.3,104.49v0a6,6,0,0,1,.3-1.24,4,4,0,0,1,1.48-1.89L126.64,94a4,4,0,0,1,1.16-.55,3.87,3.87,0,0,1,.89-.87l9.17-6.51-.21-.14a4,4,0,0,1-1.7-3.27,3,3,0,0,1,0-.43l-6.49-4.48H127a4,4,0,0,1-2.26-.7l-6.2-4.25a4,4,0,0,1-1.7-3.81L72.64,38.49,4,85.91l68.64,47.42,41.65-28.78A.13.13,0,0,1,114.3,104.49Z" fill="none"/>
        <path d="M129.5,116.65l12.27-8.5-12.83-8.86-10.77,7.44a6,6,0,0,0,3,4.89l7.85,5.39A5.28,5.28,0,0,1,129.5,116.65Z" fill="none"/>
        <path d="M131,73.76V67.69a2.48,2.48,0,1,1,0-2.28v-5.6a13.87,13.87,0,0,0-9.48,7.6l9.19,6.35Z" fill="none"/>
        <path d="M187,92.23,161.88,74.88V50.13h0a13.41,13.41,0,1,0,0-26.82,13.58,13.58,0,0,0-3.85.56,16.72,16.72,0,0,0-4.17-20,16.19,16.19,0,0,0-23.21,2.26,16.27,16.27,0,0,0-27.57,3.58,16.56,16.56,0,0,0-1.47,6.87,16.74,16.74,0,0,0,2.56,8.91,6.06,6.06,0,0,0,.53.79,16.18,16.18,0,0,0,9.68,6.49V53a4,4,0,0,0,4,4h8.51a17.83,17.83,0,0,0-8.69,8.15L74.91,35.2a4,4,0,0,0-4.54,0L1.73,82.62a4,4,0,0,0,0,6.58l68.64,47.42a4,4,0,0,0,4.54,0l39.66-27.4A10.18,10.18,0,0,0,119,115l8.76,6,0,4.6a4,4,0,0,0,4,4h2.93a4,4,0,0,0,3.22-1.62l.55.4v21.91a4,4,0,0,0,4,4,3.61,3.61,0,0,0,.73-.07l.67-.12a20.09,20.09,0,0,0,6.41-2,19.47,19.47,0,0,0,7.46-6.74,18.34,18.34,0,0,0,4.77,4.91,17.55,17.55,0,0,0,3,1.83,15.3,15.3,0,0,0,2.25.91,23.8,23.8,0,0,0,4.53,1,3.27,3.27,0,0,0,.54,0,4,4,0,0,0,4-4V106.64a3.84,3.84,0,0,0-.08-.76l.1-.06,10.14-7a4,4,0,0,0,0-6.58ZM144.37,74.39l-.83-.63h-6.09V61.42a4.06,4.06,0,0,0,1.37.91,12,12,0,0,1,7.6,11.18,12.67,12.67,0,0,1-1.35,5.5,4,4,0,0,0-.3.86,4.24,4.24,0,0,0-.63.7,13.19,13.19,0,0,1-1.29,1.55l-1.32-.91c.36-.41.76-.9,1.19-1.5A8.88,8.88,0,0,0,144.37,74.39Zm26.31,28.9-.1.06-12.94,8.93-8.66-6a4,4,0,0,0-1.17-.55,4.18,4.18,0,0,0-.93-.9l-13-9,9.67-6.68a3.91,3.91,0,0,0,1.33-1.56c.08-.07.17-.12.25-.18a24.32,24.32,0,0,0,2.46-2.53l21.93,15.18a2.38,2.38,0,0,1,1.1,2s0,.1,0,.15A3.67,3.67,0,0,0,170.68,103.29ZM139.19,77.76a11.85,11.85,0,0,1-1,1.15l-1.67-1.15Zm32.15-41.09a9.38,9.38,0,0,1-9.43,9.46,9.52,9.52,0,0,1-2-.22,4,4,0,0,0-1.71-.53,9.42,9.42,0,1,1,13.15-8.71Zm-19.72,8.68H150.3a3.94,3.94,0,0,0-1.19.18,3.94,3.94,0,0,0-1.19-.18h-1V32.78a15.17,15.17,0,0,0,2.29-.71,13.22,13.22,0,0,0-.84,4.6A13.38,13.38,0,0,0,151.62,45.35ZM117.93,29.18h-.47a12.29,12.29,0,0,1-9.5-5.23,4.32,4.32,0,0,1-.33-.5,12.8,12.8,0,0,1-.87-12.09,12.53,12.53,0,0,1,3.17-4.3,12.14,12.14,0,0,1,8-3,12.41,12.41,0,0,1,12.13,10.27h1.13v0A12.41,12.41,0,0,1,143.38,4a12.17,12.17,0,0,1,7.92,2.93,12.58,12.58,0,0,1,3.43,4.7,12.88,12.88,0,0,1-.84,11.57,9.11,9.11,0,0,1-.65,1,12.22,12.22,0,0,1-9.32,5H143V46.12a4,4,0,0,0-1.65,3.23v2h-1A4,4,0,0,0,137.1,53H118.41V29.17ZM131,59.81v5.6a2.48,2.48,0,1,0,0,2.28v6.07h-.29l-9.19-6.35A13.87,13.87,0,0,1,131,59.81ZM72.64,133.33,4,85.91,72.64,38.49,116.81,69a4,4,0,0,0,1.7,3.81l6.2,4.25a4,4,0,0,0,2.26.7h2.52L136,82.24a3,3,0,0,0,0,.43,4,4,0,0,0,1.7,3.27l.21.14-9.17,6.51a3.87,3.87,0,0,0-.89.87,4,4,0,0,0-1.16.55l-10.56,7.3a4,4,0,0,0-1.48,1.89,6,6,0,0,0-.3,1.24v0a.13.13,0,0,0,0,.06Zm45.53-26.6,10.77-7.44,12.83,8.86-12.27,8.5a5.28,5.28,0,0,0-.44.36l-7.85-5.39A6,6,0,0,1,118.17,106.73Zm18.1,15.1-1.58,1.1v2.67h-2.93v-3.9a3.6,3.6,0,0,0,.92-.46l14-9.68,6,4.13-.59.41-3.76-2.59-2.1,1.45,3.76,2.59-1.95,1.35-3.75-2.6-2.1,1.45,3.76,2.59-2,1.36-3.76-2.6-2.1,1.45,3.76,2.6-1.71,1.18-.24.18Zm12.11,26.74a18.29,18.29,0,0,1-5.92,1.72V129.35a3.76,3.76,0,0,0,1.13-.53l2-1.38a3.92,3.92,0,0,0,1-.91,4.11,4.11,0,0,0,1.16-.55l2-1.36a4.23,4.23,0,0,0,.91-.88,4,4,0,0,0,1.19-.57l1.94-1.35a3.71,3.71,0,0,0,.92-.89l.18-.06v13.89a21.49,21.49,0,0,0,.77,5.85A14.4,14.4,0,0,1,148.38,148.57Zm20.65.64a12.17,12.17,0,0,1-1.74-.7,14.42,14.42,0,0,1-2.43-1.47,13.68,13.68,0,0,1-5.07-6.48,21.78,21.78,0,0,0,.68-5.54V118a3.55,3.55,0,0,0-.08-.73l12.43-8.59,0,0v41.47A20.43,20.43,0,0,1,169,149.21Zm7.17-47.79A8,8,0,0,0,173,95.71l-.11-.08L150.56,80.18A17.38,17.38,0,0,0,152,73.26,17.82,17.82,0,0,0,141.28,57H143a4,4,0,0,0,4-4V49.35h1v4h2.38v-4h2.61v4h2.38v-4h2.14l.45.17V77l26.86,18.54Z" fill="#fff"/>
        <path d="M161.91,44.75a7.76,7.76,0,0,0,7.72-8.08,7.75,7.75,0,1,0-15.49,0A7.78,7.78,0,0,0,161.91,44.75Zm-3.67-13.54h4.25c2.62,0,3.85,1,3.85,3.14s-1.26,2.82-2.89,3l3.15,4.86h-1.84l-3-4.73H160V42.2h-1.72Z" fill="#fff"/>
        <path d="M164.63,34.28c0-1.46-1.26-1.69-2.41-1.69H160v3.5h1.79C163.25,36.09,164.63,36,164.63,34.28Z" fill="#fff"/>
        <ellipse cx="140.26" cy="66.55" rx="2.49" ry="2.48" fill="#fff"/>
        <g>
          <polygon points="72.64 133.33 141.28 85.9 72.64 38.49 4 85.91 72.64 133.33" fill="#eb6608"/>
          <path d="M121.21,111.62l9.21,6.33,14.19-9.81L128.91,97.3l-10.56,7.3a2.33,2.33,0,0,0-.1.5,6.08,6.08,0,0,0,3,6.52Z" fill="#006256"/>
          <polygon points="141.33 125.52 143.34 124.14 138.14 120.55 140.24 119.1 145.43 122.69 147.39 121.33 142.2 117.75 144.3 116.3 149.49 119.89 151.43 118.54 146.24 114.96 148.34 113.51 153.53 117.09 155.55 115.7 146.71 109.59 131.78 119.94 131.76 125.6 134.69 125.6 134.69 122.93 136.27 121.83 141.33 125.52" fill="#006256"/>
          <path d="M148.38,148.57A14.3,14.3,0,0,0,156.47,135V118l-14,9.67v22.67a18.29,18.29,0,0,0,5.92-1.72Z" fill="#006256"/>
          <path d="M147.41,82.87a20.93,20.93,0,0,1-4.7,4.67L131,95.85l26.64,18.4,12.9-8.91a3.94,3.94,0,0,0,.09-6.42l-23.22-16Z" fill="#006256"/>
          <path d="M174.62,102.09c0,.15,0,.3,0,.44l10.14-7L157.88,77V49.35h-2.59v4h-2.38v-4H150.3v4h-2.38v-4h-2.61v6h-5l0,3.27a16,16,0,0,1,10.13,14.9,16.71,16.71,0,0,1-1.77,7.28l23.15,16a6.36,6.36,0,0,1,2.82,5.28Z" fill="#006256"/>
          <path d="M172.85,150.07V106.64l-14,9.7v18.42c0,5.35,2,9.4,6.05,12.28a14.42,14.42,0,0,0,2.43,1.47,12.17,12.17,0,0,0,1.74.7,20.43,20.43,0,0,0,3.82.86Z" fill="#006256"/>
          <path d="M131.24,14.28v0A12.41,12.41,0,0,1,143.38,4a12.17,12.17,0,0,1,7.92,2.93,12.58,12.58,0,0,1,3.43,4.7,12.88,12.88,0,0,1-.84,11.57,9.11,9.11,0,0,1-.65,1,12.22,12.22,0,0,1-9.32,5H143V53H118.41V29.17h-1a12.29,12.29,0,0,1-9.5-5.23,4.32,4.32,0,0,1-.33-.5,12.8,12.8,0,0,1-.87-12.09,12.53,12.53,0,0,1,3.17-4.3,12.14,12.14,0,0,1,8-3,12.41,12.41,0,0,1,12.13,10.27Z" fill="#006256"/>
          <path d="M152.42,36.67a9.46,9.46,0,1,1,9.49,9.46,9.39,9.39,0,0,1-9.49-9.46Zm1.72,0a7.75,7.75,0,1,0,15.49,0,7.75,7.75,0,1,0-15.49,0Zm4.1,5.53v-11h4.25c2.62,0,3.85,1,3.85,3.14s-1.26,2.82-2.89,3l3.15,4.86h-1.84l-3-4.73H160V42.2ZM160,32.59v3.5h1.79c1.51,0,2.89-.08,2.89-1.81,0-1.46-1.26-1.69-2.41-1.69Z" fill="#006256"/>
          <path d="M19.78,95.06H23.4v-5.3l2.07-2.1,5,7.4H35l-7-10,6.43-6.5H29.83L23.4,85.42V78.6H19.78V95.06Zm97.53,0h3.62V81.65h4.93v-3H112.38v3h4.93V95.06ZM99,95.06h12.49V92H102.6V88h8V85.18h-8V81.65h8.69v-3H99V95.06Zm-12.78,0H97.84V92h-8V78.6H86.2V95.06Zm-14.48,0h3.62v-5.9h3.8c4.1,0,5.69-2.6,5.69-5.28s-1.59-5.28-5.69-5.28H71.72V95.06Zm-20,0h3.39V83.51l4.08,11.55H62L66,83.4,66,95.06h3.39V78.6H64.34L60.7,89.92,56.81,78.6H51.72V95.06ZM34,86.9c0,4.75,3,8.55,8.09,8.55s8.09-3.8,8.09-8.55-3-8.69-8.09-8.69S34,82,34,86.9Zm41.39-5.48h2.81c1.68,0,3.18.37,3.18,2.47s-1.5,2.47-3.18,2.47H75.34V81.42ZM37.57,86.9c0-2.88,1.22-5.65,4.47-5.65S46.51,84,46.51,86.9c0,2.74-1.22,5.51-4.47,5.51s-4.47-2.77-4.47-5.51Z" fill="#fff"/>
          <path d="M120.77,69.51a13.86,13.86,0,0,1,12.68-10V73.76H127l-6.2-4.25Zm5.57-3a2.49,2.49,0,1,0,2.49-2.48,2.49,2.49,0,0,0-2.49,2.48Z" fill="#006256"/>
          <path d="M135,73.76V59.49a13.82,13.82,0,0,1,13,13.77c0,4.54-2.07,8.17-5.5,11.18L140,82.66a12.38,12.38,0,0,0,2.77-3,8.88,8.88,0,0,0,1.65-5.32l-.83-.63Zm2.74-7.21a2.49,2.49,0,1,0,2.49-2.48,2.49,2.49,0,0,0-2.49,2.48Z" fill="#006256"/>
        </g>
      </g>
    </g>
  </g>
</svg>
